HIERARCHY
ROOT Hips
{
	OFFSET -0.001795 -0.223333 0.028219
	CHANNELS 6 Xposition Yposition Zposition Zrotation Yrotation Xrotation
	JOINT LeftUpLeg
	{
		OFFSET 0.069520 -0.091406 -0.006815
		CHANNELS 3 Zrotation Yrotation Xrotation
		JOINT LeftLeg
		{
			OFFSET 0.034277 -0.375199 -0.004496
			CHANNELS 3 Zrotation Yrotation Xrotation
			JOINT LeftFoot
			{
				OFFSET -0.013596 -0.397961 -0.043693
				CHANNELS 3 Zrotation Yrotation Xrotation
				JOINT LeftToe
				{
					OFFSET 0.026358 -0.055791 0.119288
					CHANNELS 3 Zrotation Yrotation Xrotation
					End Site
					{
						OFFSET 0.000000 0.000000 0.000000
					}
				}
			}
		}
	}
	JOINT RightUpLeg
	{
		OFFSET -0.067670 -0.090522 -0.004320
		CHANNELS 3 Zrotation Yrotation Xrotation
		JOINT RightLeg
		{
			OFFSET -0.038290 -0.382569 -0.008850
			CHANNELS 3 Zrotation Yrotation Xrotation
			JOINT RightFoot
			{
				OFFSET 0.015774 -0.398415 -0.042312
				CHANNELS 3 Zrotation Yrotation Xrotation
				JOINT RightToe
				{
					OFFSET -0.025372 -0.048144 0.123348
					CHANNELS 3 Zrotation Yrotation Xrotation
					End Site
					{
						OFFSET 0.000000 0.000000 0.000000
					}
				}
			}
		}
	}
	JOINT Spine
	{
		OFFSET -0.002533 0.108963 -0.026696
		CHANNELS 3 Zrotation Yrotation Xrotation
		JOINT Spine1
		{
			OFFSET 0.005487 0.135180 0.001092
			CHANNELS 3 Zrotation Yrotation Xrotation
			JOINT Spine2
			{
				OFFSET 0.001457 0.052922 0.025425
				CHANNELS 3 Zrotation Yrotation Xrotation
				JOINT Neck
				{
					OFFSET -0.002778 0.213870 -0.042857
					CHANNELS 3 Zrotation Yrotation Xrotation
					JOINT Head
					{
						OFFSET 0.005152 0.064970 0.051349
						CHANNELS 3 Zrotation Yrotation Xrotation
						End Site
						{
							OFFSET 0.000000 0.000000 0.000000
						}
					}
				}
				JOINT LeftShoulder
				{
					OFFSET 0.078845 0.121749 -0.034090
					CHANNELS 3 Zrotation Yrotation Xrotation
					JOINT LeftArm
					{
						OFFSET 0.090977 0.030469 -0.008868
						CHANNELS 3 Zrotation Yrotation Xrotation
						JOINT LeftForeArm
						{
							OFFSET 0.259612 -0.012772 -0.027456
							CHANNELS 3 Zrotation Yrotation Xrotation
							JOINT LeftHand
							{
								OFFSET 0.249234 0.008986 -0.001171
								CHANNELS 3 Zrotation Yrotation Xrotation
								End Site
								{
									OFFSET 0.000000 0.000000 0.000000
								}
							}
						}
					}
				}
				JOINT RightShoulder
				{
					OFFSET -0.081759 0.118833 -0.038615
					CHANNELS 3 Zrotation Yrotation Xrotation
					JOINT RightArm
					{
						OFFSET -0.096012 0.032551 -0.009143
						CHANNELS 3 Zrotation Yrotation Xrotation
						JOINT RightForeArm
						{
							OFFSET -0.253742 -0.013329 -0.021401
							CHANNELS 3 Zrotation Yrotation Xrotation
							JOINT RightHand
							{
								OFFSET -0.255298 0.007772 -0.005559
								CHANNELS 3 Zrotation Yrotation Xrotation
								End Site
								{
									OFFSET 0.000000 0.000000 0.000000
								}
							}
						}
					}
				}
			}
		}
	}
}
MOTION
Frames: 10
Frame Time: 0.050000
0.000000 0.651035 0.000000 -9.994616 -25.870229 44.729459 20.552599 27.560654 -68.344183 -15.331467 30.189072 104.609458 10.776780 29.407455 -63.196041 0.000000 0.000000 0.000000 -1.897878 4.463659 -26.769919 4.310503 7.567824 48.014945 -3.934444 -12.684409 3.988909 0.000000 0.000000 0.000000 3.915519 12.438168 87.593234 -26.802256 -23.236347 -125.240414 -2.332622 -13.186260 75.300647 11.715610 -26.842378 20.992997 0.000000 0.000000 0.000000 -42.437695 -19.428462 22.162217 -18.626307 -13.251436 -5.787750 31.525640 -52.147120 -14.906507 0.000000 0.000000 0.000000 40.500535 19.998852 6.257650 -7.707932 29.868784 -3.252262 -100.323839 62.690551 -75.399732 0.000000 0.000000 0.000000
-0.020611 0.635227 0.069500 -13.566707 -24.411343 49.507093 24.393558 33.214226 -71.145341 -17.329869 33.621984 111.775937 10.449889 31.878217 -60.838727 0.000000 0.000000 0.000000 2.374221 4.053517 -23.834578 1.718556 8.078055 44.611276 -4.423496 -11.925319 0.900946 0.000000 0.000000 0.000000 4.975322 11.161455 87.953070 -27.934310 -30.060183 -140.984481 -4.013673 -13.877347 92.063498 13.380391 -33.554106 17.712510 0.000000 0.000000 0.000000 -42.675855 -13.157856 19.220509 -14.259970 -13.760313 -6.398138 28.256086 -49.087765 -13.578219 0.000000 0.000000 0.000000 37.562551 18.245975 5.513978 -16.369893 28.676387 -3.612066 -118.558326 50.968315 -88.140380 0.000000 0.000000 0.000000
-0.043488 0.629184 0.146766 -11.344507 -21.964427 59.691699 26.421505 36.655682 -74.757076 -21.631984 35.788226 106.529821 10.367522 30.492914 -57.771072 0.000000 0.000000 0.000000 -1.586475 4.407620 -26.059621 -1.709621 5.740489 32.955158 0.061830 -6.768792 7.886932 0.000000 0.000000 0.000000 4.139775 11.527051 89.775563 -34.689187 -36.150102 -135.582062 -13.411529 -16.785236 82.948937 5.945796 -46.649000 65.160200 0.000000 0.000000 0.000000 -41.739922 -11.869188 19.562900 -14.371326 -10.895555 -5.614452 33.439689 -47.504189 -15.830314 0.000000 0.000000 0.000000 40.242523 18.851695 1.063377 -16.765476 19.234034 -1.409225 -124.515342 48.629103 -87.913639 0.000000 0.000000 0.000000
-0.069467 0.624465 0.224687 -5.199816 -16.161565 63.412081 31.022774 28.356559 -66.347321 -23.326393 37.107117 96.857297 11.508973 24.951075 -51.532311 0.000000 0.000000 0.000000 -6.167831 3.402130 -23.523734 3.441453 2.068963 28.113256 2.513126 -7.812465 21.982127 0.000000 0.000000 0.000000 2.704568 6.962333 84.142646 -46.318673 -34.353133 -116.708850 -17.549200 -29.226875 80.879511 -6.451949 -61.409569 97.638994 0.000000 0.000000 0.000000 -50.206484 -11.175376 23.134759 -4.603953 -11.805787 -3.044510 32.558119 -43.087741 -17.152062 0.000000 0.000000 0.000000 40.776570 17.207170 -6.045624 -16.689070 16.966847 -1.963627 -123.374725 46.810150 -80.699307 0.000000 0.000000 0.000000
-0.099683 0.612106 0.294586 -3.204526 -12.671340 69.774733 35.846622 21.956178 -54.982700 -26.567039 37.697882 83.585537 10.437732 26.651669 -62.664807 0.000000 0.000000 0.000000 -7.158604 3.244380 -22.884158 6.106356 1.029596 30.921133 0.065161 -7.400595 12.635011 0.000000 0.000000 0.000000 2.128017 4.962251 83.321746 -35.118016 -20.425186 -105.378292 -24.192274 -20.386405 62.574032 -4.527531 -47.110184 111.108406 0.000000 0.000000 0.000000 -50.147012 -10.548995 19.426268 0.499642 -8.322606 -0.720000 39.558959 -42.941797 -20.087637 0.000000 0.000000 0.000000 52.559439 16.485775 -8.067377 -21.874974 16.575023 -3.209502 -114.415395 51.786469 -66.456739 0.000000 0.000000 0.000000
-0.131908 0.586428 0.354789 2.238044 -9.369064 74.518590 35.444158 13.690374 -47.105082 -24.822373 30.205354 70.471814 9.450553 20.574328 -66.931854 0.000000 0.000000 0.000000 -10.485883 3.239764 -22.723376 17.743199 -4.274728 38.314277 -5.295037 -12.304190 -10.319322 0.000000 0.000000 0.000000 4.986504 -2.178798 83.385072 -35.480235 -12.111602 -84.725122 -22.141159 -29.247663 33.357074 32.917458 -67.727204 78.550729 0.000000 0.000000 0.000000 -53.287830 -8.274284 22.389837 -0.540798 -6.033221 -0.300432 49.372718 -46.085906 -23.491789 0.000000 0.000000 0.000000 49.437428 15.254550 -11.614658 -20.258108 9.128042 -2.807675 -114.101391 51.491625 -49.431709 0.000000 0.000000 0.000000
-0.161855 0.538854 0.405088 7.837484 -8.350814 76.881729 31.701589 8.912277 -43.883362 -22.990835 26.907881 68.501199 9.352083 16.042430 -58.612743 0.000000 0.000000 0.000000 -15.371799 3.453621 -20.607996 29.434529 -11.413250 42.857017 -6.017208 -21.986321 -50.547316 0.000000 0.000000 0.000000 7.264510 -7.070080 81.312750 -24.147174 -3.314730 -67.504938 -22.421952 -24.317239 9.803555 116.915086 -27.788989 -4.653266 0.000000 0.000000 0.000000 -55.327486 -5.520636 18.710889 2.612886 -6.924757 -0.300224 64.406748 -56.586879 -33.808527 0.000000 0.000000 0.000000 47.257606 12.219984 -11.555778 -19.441832 3.771735 -2.159072 -107.632157 41.727031 -25.833432 0.000000 0.000000 0.000000
-0.189209 0.468222 0.447491 11.452186 -9.804897 77.715254 31.717573 8.583232 -42.144757 -17.246021 26.107645 76.501052 9.342131 11.848116 -48.790100 0.000000 0.000000 0.000000 -24.468711 4.668509 -22.671841 38.588652 -21.612163 54.398746 -6.252674 -17.556766 -76.585670 0.000000 0.000000 0.000000 12.627354 -12.276494 81.241890 -26.719914 -3.545553 -68.231205 -24.708561 -20.747965 9.869999 132.466141 23.475971 -12.950292 0.000000 0.000000 0.000000 -58.296707 -3.977662 17.322881 6.074704 -5.581489 0.103421 91.261681 -60.218878 -57.007029 0.000000 0.000000 0.000000 40.127682 3.951176 -17.043585 -20.980212 1.798198 -2.059849 -109.306320 38.412586 -25.437724 0.000000 0.000000 0.000000
-0.216636 0.379486 0.484595 25.875319 -10.223714 73.508776 22.645749 4.777041 -42.875377 -8.058085 14.851276 82.157512 8.577965 8.769749 -41.314730 0.000000 0.000000 0.000000 -34.073119 8.463316 -7.792577 55.876132 -26.171144 40.624212 -10.434756 -9.125347 -90.478329 0.000000 0.000000 0.000000 21.625209 -22.072745 72.806859 -30.858982 -0.918082 -55.376578 -24.790115 -25.789303 1.048129 107.697963 14.129336 -7.948398 0.000000 0.000000 0.000000 -63.324528 0.343283 19.485350 9.596610 -2.832277 1.081699 116.669958 -61.684305 -86.096103 0.000000 0.000000 0.000000 34.548353 -5.085548 -24.464718 -24.684295 -0.944837 -1.949720 -128.402576 40.386444 -40.746095 0.000000 0.000000 0.000000
-0.243086 0.287978 0.514394 29.102305 -11.736070 70.749024 21.548510 4.572700 -39.210443 -4.481012 13.917818 84.290335 11.248439 2.848976 -58.783249 0.000000 0.000000 0.000000 -33.386571 10.866186 -5.675137 57.592513 -27.201069 50.751536 -9.120010 -11.607041 -96.185104 0.000000 0.000000 0.000000 25.399577 -23.464659 71.131312 -27.281057 -1.080637 -57.069969 -27.926126 -17.989770 -4.888825 88.458468 -7.486095 4.950660 0.000000 0.000000 0.000000 -61.116131 3.881838 8.878670 9.435632 1.248850 1.461752 153.856124 -58.768692 -126.491691 0.000000 0.000000 0.000000 23.962305 -13.054333 -20.367619 -23.630299 -8.324948 0.723317 -135.407650 37.244003 -51.031702 0.000000 0.000000 0.000000
